<svg xmlns="http://www.w3.org/2000/svg" width="90" height="110" fill="none" viewBox="0 0 90 110"><g clip-path="url(#a)"><path fill="url(#b)" d="M0 83.606c1.938 13.3 29.708 15.362 31.434 8.583-.04-.042-.067-72.842-.067-72.842-.478-4.942-3.478-7.735-8.177-10.367-4.38-2.438-9.876-5.414-12.863-7.132C1.885-3.008.013 3.373 0 3.566c0 0 .04 80.18 0 80.04"/><path fill="url(#c)" d="M31.434 89.46C18.664 97.25 2.628 94.049.319 84.735.212 84.284 0 83.617 0 83.617s.12.913.265 1.783c.16.913.492 2.235.837 3.363 3.982 12.654 17.535 19.98 30.584 21.119 17.867 1.278 34.34-9.872 47.827-17.95.837-.666 2.044-1.74 2.403-2.16 8.788-10.205-1.805-21.162-9.624-20.732a8357 8357 0 0 0-40.845 20.42z"/><path fill="url(#d)" fill-rule="evenodd" d="M41.522 40.928c.982 5.049 4.593 11.677 7.912 18.54 2.681 4.437 8.23 5.737 13.672 7.037 5.628 1.353 8.708 2.256 11.363 3.32 18.385 7.38 5.11 22.31 7.912 19.486 11.814-11.892 10.58-34.956-11.947-44.914-7.646-3.082-15.319-7.154-20.775-8.98-5.442-1.826-9.12.462-8.137 5.51" clip-rule="evenodd"/></g><defs><radialGradient id="c" cx="0" cy="0" r="1" gradientTransform="matrix(69.823 -24.2129 49.8584 94.166 11.788 98.302)" gradientUnits="userSpaceOnUse"><stop stop-color="#00BBEC"/><stop offset="1" stop-color="#2756A9"/></radialGradient><radialGradient id="d" cx="0" cy="0" r="1" gradientTransform="matrix(-46.0619 -42.8936 38.1372 -26.834 86.947 77.559)" gradientUnits="userSpaceOnUse"><stop stop-color="#00CACC"/><stop offset="1" stop-color="#048FCE"/></radialGradient><linearGradient id="b" x1="15.717" x2="15.717" y1="0" y2="95.004" gradientUnits="userSpaceOnUse"><stop stop-color="#00BBEC"/><stop offset="1" stop-color="#2756A9"/></linearGradient><clipPath id="a"><path fill="#fff" d="M0 0h90v110H0z"/></clipPath></defs></svg>